<svg width="52" height="52" viewBox="0 0 52 52" fill="none" xmlns="http://www.w3.org/2000/svg">
<circle cx="26" cy="26" r="26" fill="#14A76C"/>
<path d="M13 18.0242C13 15.8028 14.7927 14 17.0032 14C19.2129 14 21.0057 15.8022 21.0057 18.0242C21.0057 20.2475 19.2129 22.0497 17.0032 22.0497C14.7927 22.049 13 20.2475 13 18.0242ZM31.1514 18.0242C31.1514 15.8028 32.946 14 35.1558 14C37.3656 14 39.159 15.8022 39.159 18.0242C39.159 20.2475 37.3662 22.0497 35.1558 22.0497C32.9467 22.049 31.1514 20.2475 31.1514 18.0242Z" fill="white"/>
<path d="M16.1016 26.6172C16.1016 26.1642 15.7343 25.7969 15.2812 25.7969C13.472 25.7969 12 27.2688 12 29.0781C12 29.5312 12.3673 29.8984 12.8203 29.8984C13.2733 29.8984 13.6406 29.5312 13.6406 29.0781C13.6406 28.1735 14.3766 27.4375 15.2812 27.4375C15.7343 27.4375 16.1016 27.0702 16.1016 26.6172Z" fill="white"/>
<path d="M35.8984 25.7969C35.4454 25.7969 35.0781 26.1642 35.0781 26.6172C35.0781 27.0702 35.4454 27.4375 35.8984 27.4375C37.2554 27.4375 38.3594 28.5415 38.3594 29.8984C38.3594 30.3515 38.7267 30.7188 39.1797 30.7188C39.6327 30.7188 40 30.3515 40 29.8984C40 27.6368 38.16 25.7969 35.8984 25.7969Z" fill="white"/>
<path d="M35.5843 29.1208C29.4038 31.181 22.5962 31.181 16.4156 29.1208C15.8703 28.9406 15.3359 29.3566 15.3359 29.899V31.5396C15.3359 32.2117 15.3992 32.8693 15.5186 33.5072C15.5223 33.5328 15.5271 33.558 15.5332 33.5829C16.4927 38.5072 20.8375 42.2036 26 42.2036C31.1686 42.2036 35.5086 38.5005 36.4669 33.5829C36.4729 33.558 36.4777 33.5328 36.4814 33.5073C36.6008 32.8693 36.6641 32.2117 36.6641 31.5396V29.899C36.6641 29.337 36.1069 28.9457 35.5843 29.1208ZM35.0234 31.0161V31.5396C35.0234 31.9478 34.9957 32.3496 34.9429 32.7435C32.0444 33.5413 29.0387 33.9461 26 33.9461C22.9613 33.9461 19.9556 33.5413 17.0571 32.7435C16.9469 31.9205 16.9841 31.378 16.9766 31.0161C19.9074 31.8796 22.9375 32.3167 26 32.3167C29.0625 32.3167 32.0926 31.8795 35.0234 31.0161V31.0161ZM22.7223 39.9466C23.6753 39.2803 24.8061 38.9224 26 38.9224C27.1939 38.9224 28.3247 39.2803 29.2777 39.9466C28.2612 40.3443 27.1557 40.563 26 40.563C24.8443 40.563 23.7388 40.3443 22.7223 39.9466ZM30.8814 39.1254C29.5338 37.9322 27.8244 37.2818 26 37.2818C24.1756 37.2818 22.4662 37.9322 21.1186 39.1254C19.456 38.0518 18.1676 36.4469 17.4946 34.5529C20.2636 35.2385 23.1179 35.5867 25.9999 35.5867C28.882 35.5867 31.7363 35.2385 34.5053 34.5529C33.8323 36.4469 32.544 38.0519 30.8814 39.1254V39.1254Z" fill="white"/>
</svg>
