<svg width="52" height="52" viewBox="0 0 52 52" fill="none" xmlns="http://www.w3.org/2000/svg">
<circle cx="26" cy="26" r="26" fill="#14A76C"/>
<g clip-path="url(#clip0_4781_21826)">
<path d="M13 18.0242C13 15.8028 14.7927 14 17.0032 14C19.2129 14 21.0057 15.8022 21.0057 18.0242C21.0057 20.2475 19.2129 22.0497 17.0032 22.0497C14.7927 22.049 13 20.2475 13 18.0242ZM31.1514 18.0242C31.1514 15.8028 32.946 14 35.1558 14C37.3656 14 39.159 15.8022 39.159 18.0242C39.159 20.2475 37.3662 22.0497 35.1558 22.0497C32.9467 22.049 31.1514 20.2475 31.1514 18.0242Z" fill="white"/>
<path fill-rule="evenodd" clip-rule="evenodd" d="M11.7786 28.4071C11.0628 28.7768 10.8164 29.6063 11.1405 30.5557C11.5236 31.6788 12.6826 33.7547 13.4566 34.7045C14.0233 35.3998 15.5876 36.9349 16.3238 37.5181C18.1827 38.9907 20.4058 40.0274 22.8689 40.5702C24.7968 40.9951 24.4266 40.9192 26.2364 40.9997C27.676 40.9192 27.4703 40.9594 29.764 40.527C32.226 39.9534 34.3006 38.9616 36.2415 37.4302C37.2728 36.6165 38.8905 34.9128 39.5267 33.9705C40.5671 32.4294 41.496 30.4391 41.496 29.7511C41.496 29.3581 41.1383 28.7168 40.7906 28.4866C40.5876 28.3523 40.344 28.2795 40.0217 28.2566C39.2082 28.1991 38.6606 28.603 38.2837 29.5384C36.9806 32.7726 34.1427 35.6052 30.9665 36.842C29.2615 37.5058 27.9029 37.7028 25.497 37.6351C24.2418 37.5997 23.8902 37.5607 23.1968 37.3795C20.7594 36.7427 18.8872 35.6842 17.1464 33.9586C15.8604 32.6839 15.0255 31.4754 14.2978 29.8353C14.1034 29.3969 13.8633 28.927 13.7642 28.791C13.3879 28.274 12.4046 28.0838 11.7786 28.4071Z" fill="white"/>
</g>
<defs>
<clipPath id="clip0_4781_21826">
<rect width="34" height="34" fill="white" transform="translate(9 9)"/>
</clipPath>
</defs>
</svg>
