<svg width="52" height="52" viewBox="0 0 52 52" fill="none" xmlns="http://www.w3.org/2000/svg">
<g clip-path="url(#clip0_2033_12121)">
<rect width="1920" height="2630" transform="translate(-807 -24)" fill="#F7F7F7"/>
<path d="M0 0H52V52H0V0Z" fill="#14A76C"/>
<path fill-rule="evenodd" clip-rule="evenodd" d="M14.6889 14.1141C13.313 14.498 12.1822 15.2337 11.2975 16.3207C10.3438 17.4926 10 18.4384 10 19.8904C10 20.7257 10.0231 20.8948 10.1686 21.1253C10.7439 22.0357 12.3508 22.0002 12.8446 21.0661C12.9143 20.9342 13.0416 20.4655 13.1275 20.0243C13.3893 18.6803 13.9714 17.8628 15.0036 17.3894C15.4166 17.2 15.5699 17.1754 16.3342 17.1761C17.0991 17.1767 17.2523 17.2016 17.6726 17.3937C18.2533 17.659 18.9257 18.3146 19.1805 18.864C19.2835 19.086 19.4296 19.5937 19.5051 19.992C19.7475 21.271 20.1462 21.7328 21.0536 21.7853C21.5026 21.8113 21.6006 21.7876 21.9488 21.5689C22.652 21.1269 22.8271 20.597 22.6722 19.3777C22.5287 18.2484 22.1427 17.3271 21.4145 16.3758C20.6499 15.377 19.1988 14.4342 17.9416 14.1193C17.3279 13.9656 15.2334 13.9623 14.6889 14.1141ZM33.8149 14.1863C31.5833 14.894 29.9455 16.5925 29.4177 18.7466C29.1879 19.6841 29.195 20.5381 29.4358 20.9501C29.7416 21.4732 30.1614 21.7469 30.7181 21.7863C31.2436 21.8235 31.5835 21.703 31.9827 21.3377C32.2435 21.0991 32.3176 20.8955 32.499 19.9193C32.8524 18.0176 34.1104 17.0219 35.993 17.1536C36.7141 17.2041 37.3681 17.5052 37.9115 18.0368C38.3981 18.5128 38.6783 19.0916 38.8295 19.9331C39.078 21.3159 39.5225 21.8008 40.5425 21.8023C40.9875 21.8029 41.3377 21.635 41.6915 21.2515L42 20.917V20.0235C42 18.9442 41.8705 18.3968 41.3834 17.4168C40.7792 16.2015 39.8474 15.265 38.6272 14.647C37.5529 14.1028 37.0591 13.996 35.6366 14.0001C34.5721 14.0032 34.3069 14.0303 33.8149 14.1863ZM11.5423 28.4074C10.8264 28.7771 10.58 29.6066 10.9041 30.5561C11.2872 31.6791 12.4462 33.755 13.2202 34.7048C13.7869 35.4001 15.3512 36.9352 16.0874 37.5184C17.9463 38.991 20.1694 40.0277 22.6325 40.5705C24.5604 40.9954 24.1902 40.9195 26 41C27.4396 40.9195 27.2339 40.9598 29.5277 40.5273C31.9896 39.9538 34.0642 38.9619 36.0051 37.4305C37.0364 36.6168 38.6541 34.9132 39.2903 33.9709C40.3307 32.4297 41.2596 30.4394 41.2596 29.7515C41.2596 29.3584 40.9019 28.7171 40.5542 28.4869C40.3512 28.3526 40.1076 28.2798 39.7853 28.2569C38.9718 28.1994 38.4242 28.6033 38.0473 29.5388C36.7442 32.773 33.9063 35.6055 30.7301 36.8423C29.0251 37.5061 27.6665 37.7031 25.2606 37.6354C24.0054 37.6 23.6538 37.561 22.9604 37.3799C20.523 36.743 18.6508 35.6845 16.91 33.9589C15.624 32.6842 14.7891 31.4757 14.0615 29.8356C13.867 29.3972 13.6269 28.9273 13.5278 28.7913C13.1515 28.2743 12.1682 28.0841 11.5423 28.4074Z" fill="white"/>
</g>
<defs>
<clipPath id="clip0_2033_12121">
<rect width="1920" height="2630" fill="white" transform="translate(-807 -24)"/>
</clipPath>
</defs>
</svg>

