<svg width="52" height="52" viewBox="0 0 52 52" fill="none" xmlns="http://www.w3.org/2000/svg">
<circle cx="26" cy="26" r="26" fill="#14A76C"/>
<path d="M13 18.0242C13 15.8028 14.7927 14 17.0032 14C19.2129 14 21.0057 15.8022 21.0057 18.0242C21.0057 20.2475 19.2129 22.0497 17.0032 22.0497C14.7927 22.049 13 20.2475 13 18.0242ZM31.1514 18.0242C31.1514 15.8028 32.946 14 35.1558 14C37.3656 14 39.159 15.8022 39.159 18.0242C39.159 20.2475 37.3662 22.0497 35.1558 22.0497C32.9467 22.049 31.1514 20.2475 31.1514 18.0242Z" fill="white"/>
<path fill-rule="evenodd" clip-rule="evenodd" d="M13.0692 26.1061C12.7286 26.2277 12.2908 26.6595 12.1092 27.0527C11.8151 27.6893 12.1468 30.4747 12.7244 32.2191C13.9867 36.0317 16.9294 39.3084 20.4652 40.8385C22.8216 41.8581 25.6867 42.2395 28.0686 41.8505C31.8158 41.2384 35.1851 39.1237 37.3418 36.0301C38.0234 35.0524 39.0287 33.0167 39.3389 31.9862C39.7856 30.5023 40.1086 28.0928 39.9658 27.3109C39.8858 26.8729 39.3191 26.2353 38.8931 26.1041C38.438 25.964 13.4612 25.9659 13.0692 26.1061ZM36.6097 29.7516C36.4955 30.4135 35.994 31.9249 35.6697 32.5849C34.1286 35.7212 31.1856 37.9665 27.8273 38.5681C26.8751 38.7386 25.0955 38.7356 24.1251 38.5618C20.8077 37.9675 17.8905 35.7438 16.3435 32.6299C15.9984 31.9352 15.4965 30.4393 15.3778 29.7516L15.2973 29.2853H25.9938H36.6902L36.6097 29.7516Z" fill="white"/>
</svg>
