<svg width="52" height="52" viewBox="0 0 52 52" fill="none" xmlns="http://www.w3.org/2000/svg">
<circle cx="26" cy="26" r="26" fill="#14A76C"/>
<g clip-path="url(#clip0_4781_21844)">
<path d="M38.1267 14.4956C37.5054 13.8351 36.4978 13.8348 35.8763 14.4946L32.4665 18.1137C31.8449 18.7735 31.8444 19.8439 32.4656 20.5043C33.0868 21.1648 34.0944 21.1651 34.7159 20.5053L36.9999 18.0811L39.2841 20.5054C39.9057 21.1652 40.9132 21.1649 41.5344 20.5044C42.1556 19.844 42.1551 18.7736 41.5335 18.1138L38.1267 14.4956Z" fill="white"/>
<path d="M17.2841 20.5054C17.9057 21.1652 18.9132 21.1649 19.5344 20.5044C20.1556 19.844 20.1551 18.7736 19.5335 18.1137L16.1266 14.4956C15.5054 13.8351 14.4978 13.8348 13.8763 14.4946L10.4665 18.1137C9.84487 18.7736 9.84444 19.844 10.4656 20.5044C11.0868 21.1649 12.0944 21.1652 12.7159 20.5054L15 18.0811L17.2841 20.5054Z" fill="white"/>
<path fill-rule="evenodd" clip-rule="evenodd" d="M11.7786 28.4071C11.0628 28.7768 10.8164 29.6063 11.1405 30.5557C11.5236 31.6788 12.6826 33.7547 13.4566 34.7045C14.0233 35.3998 15.5876 36.9349 16.3238 37.5181C18.1827 38.9907 20.4058 40.0274 22.8689 40.5702C24.7968 40.9951 24.4266 40.9192 26.2364 40.9997C27.676 40.9192 27.4703 40.9594 29.764 40.527C32.226 39.9534 34.3006 38.9616 36.2415 37.4302C37.2728 36.6165 38.8905 34.9128 39.5267 33.9705C40.5671 32.4294 41.496 30.4391 41.496 29.7511C41.496 29.3581 41.1383 28.7168 40.7906 28.4866C40.5876 28.3523 40.344 28.2795 40.0217 28.2566C39.2082 28.1991 38.6606 28.603 38.2837 29.5384C36.9806 32.7726 34.1427 35.6052 30.9665 36.842C29.2615 37.5058 27.9029 37.7028 25.497 37.6351C24.2418 37.5997 23.8902 37.5607 23.1968 37.3795C20.7594 36.7427 18.8872 35.6842 17.1464 33.9586C15.8604 32.6839 15.0255 31.4754 14.2978 29.8353C14.1034 29.3969 13.8633 28.927 13.7642 28.791C13.3879 28.274 12.4046 28.0838 11.7786 28.4071Z" fill="white"/>
</g>
<defs>
<clipPath id="clip0_4781_21844">
<rect width="34" height="34" fill="white" transform="translate(9 9)"/>
</clipPath>
</defs>
</svg>
