<svg width="60" height="60" viewBox="0 0 60 60" fill="none" xmlns="http://www.w3.org/2000/svg">
<g clip-path="url(#clip0_2506_16567)">
<rect width="1920" height="1388" transform="translate(-1472 -119)" fill="#F7F7F7"/>
<rect width="60" height="60" fill="#14A76C"/>
<path fill-rule="evenodd" clip-rule="evenodd" d="M17.0862 15.1507C15.7431 15.4361 13.9032 16.5196 13.3364 17.3588C12.4735 18.6368 13.3663 20.2711 14.9275 20.2711C15.5342 20.2711 15.7199 20.1898 16.5419 19.5651C17.2903 18.9963 17.899 18.7803 18.7597 18.7782C19.646 18.7759 20.4466 19.0746 21.1651 19.6757C21.4698 19.9306 21.8452 20.1665 21.9992 20.1999C22.1532 20.2334 22.3577 20.2814 22.4534 20.3066C22.8604 20.4137 23.5861 20.1171 24.0038 19.673C24.4561 19.1922 24.5994 18.7365 24.508 18.0691C24.3637 17.0151 22.5534 15.6867 20.5911 15.1949C19.6264 14.9531 18.1062 14.9339 17.0862 15.1507ZM39.3706 15.1997C37.9836 15.5557 36.5074 16.4309 35.8334 17.2969C35.2798 18.0083 35.3492 18.9822 36.0032 19.6775C36.329 20.0239 36.5395 20.1488 36.9386 20.2327C37.2219 20.2922 37.5144 20.3224 37.5885 20.2998C37.6628 20.2772 37.8496 20.2318 38.0036 20.199C38.1577 20.1661 38.5331 19.9306 38.8377 19.6757C39.5563 19.0746 40.3568 18.7759 41.2432 18.7782C42.1038 18.7803 42.7126 18.9963 43.4609 19.5651C44.1657 20.1007 44.3378 20.1922 44.8032 20.2788C45.6213 20.4311 46.5484 19.8819 46.8712 19.0537C47.0974 18.4732 47.025 17.8899 46.6597 17.3489C46.0876 16.5017 44.2322 15.4297 42.8362 15.1397C41.8419 14.9332 40.3048 14.9598 39.3706 15.1997Z" fill="white"/>
<path fill-rule="evenodd" clip-rule="evenodd" d="M14.2983 25.677C13.8848 25.8172 13.3532 26.315 13.1326 26.7682C12.7755 27.5021 13.1783 30.7131 13.8796 32.7241C15.4124 37.1193 18.9857 40.8968 23.2791 42.6606C26.1405 43.8361 29.6196 44.2757 32.5119 43.8273C37.062 43.1216 41.1533 40.6838 43.7722 37.1174C44.5999 35.9903 45.8205 33.6436 46.1973 32.4556C46.7396 30.745 47.1319 27.9672 46.9585 27.0659C46.8614 26.5609 46.1731 25.8259 45.6559 25.6747C45.1033 25.5132 14.7744 25.5154 14.2983 25.677ZM42.8833 29.8795C42.7445 30.6426 42.1356 32.3849 41.7418 33.1458C39.8704 36.7614 36.2968 39.3498 32.2189 40.0433C31.0627 40.2399 28.9017 40.2364 27.7233 40.036C23.695 39.3509 20.1528 36.7875 18.2743 33.1977C17.8552 32.3968 17.2457 30.6724 17.1016 29.8795L17.0039 29.342H29.9924H42.981L42.8833 29.8795Z" fill="white"/>
</g>
<defs>
<clipPath id="clip0_2506_16567">
<rect width="1920" height="1388" fill="white" transform="translate(-1472 -119)"/>
</clipPath>
</defs>
</svg>
