<?xml version="1.0" standalone="no"?>
<!DOCTYPE svg PUBLIC "-//W3C//DTD SVG 20010904//EN"
 "http://www.w3.org/TR/2001/REC-SVG-20010904/DTD/svg10.dtd">
<svg version="1.0" xmlns="http://www.w3.org/2000/svg"
 width="700.000000pt" height="700.000000pt" viewBox="0 0 700.000000 700.000000"
 preserveAspectRatio="xMidYMid meet">
<g transform="translate(0.000000,700.000000) scale(0.100000,-0.100000)"
fill="#000000" stroke="none">
<path d="M3015 6740 c-407 -64 -789 -289 -911 -535 -33 -68 -38 -86 -38 -149
0 -177 134 -302 384 -357 137 -30 426 -37 618 -15 468 54 848 252 922 481 55
170 -63 355 -303 474 -151 75 -265 102 -457 106 -85 2 -182 0 -215 -5z"/>
<path d="M4675 6386 c-67 -21 -100 -43 -149 -97 -50 -56 -117 -184 -134 -259
-46 -195 -3 -407 119 -590 94 -141 354 -376 513 -464 134 -75 268 -95 400 -61
107 28 148 69 183 181 26 85 23 303 -6 437 -47 220 -127 400 -233 526 -196
233 -515 383 -693 327z"/>
<path d="M1315 5773 c-270 -113 -535 -532 -561 -888 -18 -249 122 -488 308
-527 72 -15 136 -1 249 53 265 128 481 364 535 584 24 98 25 317 1 405 -42
159 -135 290 -249 350 -56 30 -73 34 -153 37 -67 2 -100 -1 -130 -14z"/>
<path d="M3890 5470 c-85 -11 -177 -40 -330 -105 -387 -164 -541 -174 -892
-58 -129 43 -152 47 -238 48 -91 0 -98 -2 -160 -36 -73 -40 -123 -98 -141
-162 -8 -29 -9 -94 -5 -207 11 -280 -19 -454 -101 -577 -86 -129 -317 -272
-514 -317 -35 -8 -132 -22 -216 -31 -235 -24 -294 -50 -364 -157 -183 -285
-163 -894 52 -1532 258 -765 742 -1435 1299 -1798 333 -218 671 -327 1065
-344 158 -7 532 9 735 31 916 101 1463 434 1770 1077 105 222 174 452 235 788
43 239 52 281 125 545 75 269 90 345 90 448 0 103 -18 167 -71 245 -71 108
-144 146 -345 182 -157 28 -236 64 -309 141 -97 102 -133 203 -165 469 -26
211 -44 288 -80 342 -39 59 -88 84 -222 113 -286 61 -457 144 -604 297 -90 93
-137 167 -216 342 -72 159 -126 230 -186 245 -60 15 -143 19 -212 11z m-237
-1143 c205 -75 251 -158 189 -342 -27 -81 -30 -106 -34 -245 -4 -144 -6 -161
-37 -245 -47 -130 -47 -139 -9 -225 28 -64 32 -87 33 -155 0 -69 -4 -87 -28
-130 -15 -28 -45 -71 -66 -95 l-37 -43 -53 19 c-126 45 -169 124 -157 290 3
50 11 117 17 148 9 51 7 64 -21 153 -145 451 -128 796 43 874 55 24 83 24 160
-4z m720 -287 c88 -33 157 -122 157 -202 0 -18 -9 -58 -21 -88 -13 -35 -26
-107 -35 -195 -16 -160 -41 -253 -92 -345 l-37 -65 0 -160 c0 -186 -7 -206
-102 -307 -48 -50 -54 -61 -48 -85 16 -66 169 -226 307 -320 103 -72 121 -71
182 7 27 36 72 77 108 101 34 22 63 41 65 43 2 1 -2 27 -8 57 -16 78 3 119 70
156 36 20 49 33 45 43 -3 8 -15 51 -26 94 -38 148 -10 234 93 291 78 42 150
42 244 -3 87 -41 114 -66 121 -111 5 -27 16 -43 45 -63 74 -53 85 -117 38
-215 -69 -140 -642 -622 -741 -623 -13 0 -16 -7 -11 -33 26 -162 -257 -754
-518 -1083 l-61 -76 -59 4 c-111 8 -145 55 -160 219 -11 122 -7 186 18 318 17
92 14 163 -12 279 -20 85 -60 146 -113 168 -20 9 -66 30 -101 47 -70 34 -128
40 -156 17 -25 -21 -53 -87 -56 -135 -2 -27 7 -65 29 -117 42 -100 49 -170 28
-281 -20 -103 -43 -167 -93 -251 -20 -34 -45 -77 -55 -96 -36 -64 -68 -99
-116 -127 -42 -25 -56 -28 -132 -27 -127 2 -236 40 -307 107 -71 67 -84 90
-179 312 -112 264 -147 373 -148 460 -1 88 -17 111 -141 205 -131 99 -195 183
-309 403 -45 87 -66 138 -66 162 0 33 4 38 47 57 124 55 333 -50 403 -202 14
-30 35 -72 47 -94 13 -23 48 -93 79 -156 30 -63 65 -125 76 -137 27 -29 75
-30 127 -4 56 29 136 122 160 186 25 67 25 75 5 162 -27 114 -6 207 63 284 43
48 38 69 -21 83 -52 12 -102 65 -121 128 -9 29 -18 98 -21 153 -7 121 -15 150
-62 217 -41 61 -68 140 -119 352 -30 123 -37 170 -37 256 -1 90 3 111 22 148
13 23 37 52 55 62 54 33 138 23 197 -25 8 -6 36 -19 62 -29 94 -35 131 -124
109 -265 -12 -84 -2 -151 39 -244 26 -57 34 -139 22 -205 -8 -47 -6 -63 21
-145 22 -68 30 -112 31 -172 1 -73 -2 -85 -32 -138 -18 -32 -30 -61 -28 -66 7
-10 162 -22 336 -25 102 -2 142 1 164 11 37 19 67 14 206 -37 129 -47 245 -64
255 -38 3 8 -6 50 -21 94 -31 92 -36 190 -12 244 8 19 32 57 52 83 l37 48 -25
112 c-41 183 -51 300 -37 419 8 73 9 113 1 138 -15 51 -12 136 5 170 27 53
121 108 187 109 15 1 51 -8 81 -19z"/>
<path d="M5709 4826 c-76 -27 -136 -85 -176 -171 -26 -56 -28 -68 -27 -190 0
-115 3 -140 28 -215 97 -292 260 -455 493 -492 166 -26 232 63 220 296 -18
331 -217 701 -415 772 -47 17 -77 17 -123 0z"/>
</g>
</svg>
